<svg xmlns="http://www.w3.org/2000/svg">

  <symbol id="sanserif" viewBox="0 0 473.09 133.57">
    <g fill="currentColor">
      <path d="m0,3.04h28.64l32.06,99.82h.33L92.28,3.04h28.32v127.5h-19.37V32.15h-.33l-32.22,98.39h-16.76L19.69,32.15h-.33v98.39H0V3.04Z"/>
      <path d="m180.98,0c8.68,0,16.46,1.79,23.35,5.36,6.89,3.57,12.72,8.39,17.5,14.46,4.77,6.07,8.43,13.16,10.99,21.25,2.55,8.1,3.83,16.67,3.83,25.71s-1.28,17.8-3.83,25.89c-2.55,8.1-6.21,15.18-10.99,21.25-4.78,6.07-10.61,10.87-17.5,14.37-6.89,3.51-14.68,5.27-23.35,5.27s-16.47-1.76-23.36-5.27c-6.89-3.51-12.72-8.3-17.5-14.37-4.78-6.07-8.44-13.15-10.99-21.25-2.55-8.09-3.82-16.72-3.82-25.89s1.27-17.62,3.82-25.71c2.55-8.09,6.21-15.18,10.99-21.25,4.77-6.07,10.6-10.89,17.5-14.46,6.89-3.57,14.67-5.36,23.36-5.36Zm0,18.21c-6.18,0-11.53,1.37-16.03,4.11-4.5,2.74-8.17,6.4-10.99,10.98-2.82,4.58-4.91,9.79-6.27,15.63-1.36,5.84-2.03,11.79-2.03,17.86s.68,12.03,2.03,17.86c1.36,5.84,3.44,11.04,6.27,15.63,2.82,4.58,6.48,8.25,10.99,10.98,4.5,2.74,9.85,4.11,16.03,4.11s11.53-1.37,16.03-4.11c4.5-2.74,8.16-6.4,10.99-10.98,2.82-4.58,4.91-9.79,6.27-15.63,1.36-5.83,2.03-11.78,2.03-17.86s-.68-12.02-2.03-17.86c-1.36-5.83-3.45-11.04-6.27-15.63-2.82-4.58-6.48-8.24-10.99-10.98-4.5-2.74-9.85-4.11-16.03-4.11Z"/>
      <path d="m240.87,3.04h21.48l53.06,93.93h.33V3.04h19.37v127.5h-21.48l-52.89-93.75h-.49v93.75h-19.37V3.04Z"/>
      <path d="m338.35,77.86c0-13.33,1.82-24.91,5.45-34.73,3.63-9.82,8.41-17.92,14.32-24.29,5.91-6.37,12.58-11.1,20.02-14.2,7.43-3.09,14.94-4.64,22.54-4.64s14.54,1.37,20.83,4.11c6.29,2.74,11.64,6.58,16.03,11.52,4.39,4.94,7.81,10.8,10.25,17.59,2.44,6.79,3.66,14.29,3.66,22.5,0,13.45-1.74,25.06-5.21,34.82-3.47,9.76-8.08,17.83-13.83,24.2-5.75,6.37-12.32,11.1-19.69,14.2-7.38,3.09-14.97,4.64-22.79,4.64-8.36,0-15.73-1.43-22.13-4.29-6.4-2.86-11.77-6.78-16.11-11.78-4.34-5-7.65-10.89-9.93-17.68-2.28-6.78-3.42-14.11-3.42-21.96Zm20.34-.72c0,11.91,2.77,21.25,8.3,28.04,5.53,6.79,13.4,10.18,23.6,10.18,6.73,0,12.61-1.72,17.66-5.18,5.04-3.45,9.28-7.97,12.69-13.57,3.42-5.59,5.97-11.9,7.65-18.93,1.68-7.02,2.52-14.11,2.52-21.25,0-11.9-2.63-21.25-7.89-28.04-5.26-6.79-12.99-10.18-23.19-10.18-6.95,0-12.99,1.73-18.15,5.18-5.15,3.45-9.44,7.98-12.86,13.57-3.42,5.6-6,11.9-7.73,18.93-1.74,7.03-2.6,14.11-2.6,21.25Z"/>
      <path d="m472.9,119.87c0,2.03-.33,3.88-.97,5.55-.65,1.67-1.53,3.09-2.64,4.28-1.11,1.19-2.4,2.1-3.87,2.75-1.47.65-3,.98-4.61.98-1.78,0-3.42-.34-4.91-1.03-1.49-.69-2.77-1.64-3.83-2.84-1.07-1.21-1.91-2.64-2.51-4.3-.61-1.65-.91-3.45-.91-5.38s.32-3.88.97-5.55c.65-1.67,1.53-3.09,2.64-4.28,1.11-1.19,2.41-2.1,3.88-2.75,1.48-.65,3.03-.98,4.66-.98s3.14.33,4.61.98c1.46.65,2.75,1.57,3.87,2.75,1.11,1.19,1.99,2.61,2.64,4.28.65,1.67.97,3.52.97,5.55Zm-2.64,0c0-1.64-.24-3.15-.73-4.53-.49-1.38-1.16-2.56-2.02-3.55s-1.86-1.76-3.01-2.3c-1.15-.55-2.38-.82-3.7-.82s-2.59.27-3.75.82c-1.16.54-2.16,1.31-3.02,2.3s-1.53,2.18-2.02,3.55c-.49,1.38-.73,2.89-.73,4.53,0,1.55.22,3,.66,4.35.44,1.35,1.07,2.54,1.9,3.55s1.82,1.82,2.99,2.41c1.17.59,2.49.89,3.96.89,1.32,0,2.56-.27,3.7-.82,1.14-.54,2.15-1.31,3.01-2.3s1.53-2.17,2.02-3.54c.48-1.36.73-2.88.73-4.55Zm-3.21,2.61c-.13.87-.38,1.65-.74,2.34s-.8,1.27-1.31,1.76c-.51.48-1.09.85-1.74,1.11-.65.25-1.34.38-2.07.38-1.06,0-2.02-.21-2.88-.62s-1.6-.98-2.21-1.72c-.62-.74-1.09-1.61-1.42-2.61s-.5-2.08-.5-3.25c0-1.09.16-2.11.48-3.06.32-.96.78-1.78,1.37-2.47s1.32-1.24,2.18-1.65,1.83-.62,2.91-.62c1.52,0,2.83.47,3.92,1.4,1.09.93,1.75,2.29,1.97,4.08h-2.25c-.18-.92-.59-1.67-1.24-2.25-.65-.58-1.45-.87-2.4-.87-.7,0-1.32.15-1.85.44s-.97.68-1.34,1.16c-.36.48-.64,1.06-.83,1.72-.19.67-.28,1.37-.28,2.12,0,.8.1,1.55.3,2.25s.49,1.32.88,1.85c.39.53.85.96,1.39,1.27.54.31,1.14.47,1.8.47.99,0,1.81-.3,2.45-.91.64-.6,1.01-1.38,1.12-2.32h2.28Z"/>
    </g>
  </symbol>

  <symbol id="arrow" viewBox="0 0 23 23">
    <path fill-rule="evenodd" clip-rule="evenodd" d="M0.999996 12.0625L19.8145 12.0626L13.0168 18.8603L14.0774 19.921L22.6858 11.3126L14.0774 2.70421L13.0168 3.76487L19.8145 10.5626L1 10.5625L0.999996 12.0625Z" fill="currentColor" />
  </symbol>

  <symbol id="404" viewBox="0 0 1672 972">
    <path d="M346.059 342.813v-31.847L537.348 5.909h23.466v53.427h-17.39L389.848 304.89v2.724H640.64v35.199H346.059ZM546.357 435V5.91h37.294V435h-37.294ZM817.604 440.867c-30.17 0-55.941-8.66-77.311-25.98-21.231-17.46-37.574-42.672-49.027-75.636-11.314-32.964-16.971-72.563-16.971-118.796 0-46.094 5.657-85.553 16.971-118.377 11.453-32.964 27.866-58.176 49.236-75.636C762.013 8.842 787.713.043 817.604.043c29.892 0 55.523 8.8 76.893 26.4 21.511 17.459 37.923 42.67 49.237 75.635 11.453 32.824 17.18 72.283 17.18 118.377 0 46.233-5.727 85.832-17.18 118.796-11.314 32.964-27.656 58.176-49.027 75.636-21.231 17.32-46.932 25.98-77.103 25.98Zm0-35.199c33.104 0 58.945-16.133 77.522-48.398 18.577-32.406 27.866-78.011 27.866-136.815 0-39.11-4.261-72.493-12.781-100.149-8.381-27.796-20.463-49.027-36.246-63.693-15.644-14.667-34.431-22-56.361-22-32.824 0-58.594 16.343-77.311 49.027-18.717 32.545-28.076 78.15-28.076 136.815 0 39.11 4.191 72.493 12.571 100.149 8.521 27.656 20.603 48.748 36.247 63.274 15.784 14.527 34.64 21.79 56.569 21.79ZM994.621 342.813v-31.847L1185.91 5.909h23.47v53.427h-17.39L1038.41 304.89v2.724h250.79v35.199H994.621ZM1194.92 435V5.91h37.29V435h-37.29ZM.355 966V536.909h248.906v35.199H39.535v161.538h196.527v35.199H39.535v161.957h213.917V966H.355ZM309.367 966V536.909h138.491c30.45 0 55.871 5.518 76.264 16.552 20.533 10.895 35.968 26.05 46.304 45.466 10.476 19.275 15.714 41.414 15.714 66.416 0 25.003-5.238 47.072-15.714 66.208-10.336 19.136-25.701 34.081-46.094 44.836-20.393 10.756-45.675 16.133-75.845 16.133H330.529v-35.827h116.91c22.349 0 40.926-3.702 55.732-11.105 14.945-7.402 26.05-17.948 33.313-31.637 7.403-13.688 11.104-29.891 11.104-48.608 0-18.716-3.701-35.059-11.104-49.027-7.403-14.107-18.577-25.002-33.523-32.684-14.806-7.683-33.522-11.524-56.15-11.524h-98.264V966h-39.18Zm189.194-193.593L604.158 966h-45.256L454.353 772.407h44.208ZM640.275 966V536.909h138.49c30.45 0 55.871 5.518 76.264 16.552 20.533 10.895 35.968 26.05 46.304 45.466 10.476 19.275 15.714 41.414 15.714 66.416 0 25.003-5.238 47.072-15.714 66.208-10.336 19.136-25.701 34.081-46.094 44.836-20.393 10.756-45.675 16.133-75.845 16.133H661.436v-35.827h116.91c22.349 0 40.926-3.702 55.732-11.105 14.945-7.402 26.05-17.948 33.313-31.637 7.403-13.688 11.104-29.891 11.104-48.608 0-18.716-3.701-35.059-11.104-49.027-7.403-14.107-18.577-25.002-33.523-32.684-14.806-7.683-33.522-11.524-56.15-11.524h-98.264V966h-39.179Zm189.193-193.593L935.065 966h-45.256L785.26 772.407h44.208ZM1322.96 751.455c0 44.697-7.96 83.597-23.88 116.701-15.93 32.964-37.86 58.525-65.79 76.683-27.8 18.019-59.78 27.028-95.96 27.028-36.18 0-68.23-9.009-96.17-27.028-27.8-18.158-49.655-43.719-65.579-76.683-15.783-33.104-23.675-72.004-23.675-116.701 0-44.697 7.892-83.528 23.675-116.492 15.924-33.103 37.849-58.664 65.789-76.683 27.94-18.158 59.92-27.237 95.96-27.237 36.18 0 68.16 9.079 95.96 27.237 27.93 18.019 49.86 43.58 65.79 76.683 15.92 32.964 23.88 71.795 23.88 116.492Zm-38.13 0c0-38.412-6.43-71.306-19.28-98.683-12.85-27.516-30.38-48.538-52.59-63.064-22.2-14.527-47.42-21.79-75.63-21.79-28.08 0-53.22 7.263-75.43 21.79-22.21 14.526-39.81 35.478-52.8 62.855-12.846 27.377-19.272 60.341-19.272 98.892 0 38.411 6.426 71.306 19.272 98.682 12.85 27.377 30.38 48.399 52.59 63.065 22.21 14.527 47.42 21.79 75.64 21.79 28.21 0 53.43-7.263 75.63-21.79 22.35-14.526 39.95-35.478 52.8-62.855 12.85-27.517 19.21-60.481 19.07-98.892ZM1376.41 966V536.909h138.5c30.45 0 55.87 5.518 76.26 16.552 20.53 10.895 35.97 26.05 46.3 45.466 10.48 19.275 15.72 41.414 15.72 66.416 0 25.003-5.24 47.072-15.72 66.208-10.33 19.136-25.7 34.081-46.09 44.836-20.39 10.756-45.68 16.133-75.85 16.133h-117.95v-35.827h116.91c22.35 0 40.92-3.702 55.73-11.105 14.94-7.402 26.05-17.948 33.31-31.637 7.4-13.688 11.11-29.891 11.11-48.608 0-18.716-3.71-35.059-11.11-49.027-7.4-14.107-18.58-25.002-33.52-32.684-14.81-7.683-33.52-11.524-56.15-11.524h-98.27V966h-39.18Zm189.2-193.593L1671.21 966h-45.26L1521.4 772.407h44.21Z" />
  </symbol>

</svg>
