<svg xmlns="http://www.w3.org/2000/svg">

  <symbol id="sanserif" viewBox="0 0 74 15">
    <g fill="currentColor">
      <path d="M73.6383 11.8659C73.3836 11.6112 73.0886 11.5039 72.7267 11.5039C72.3647 11.5039 72.0564 11.6112 71.8151 11.8659C71.5604 12.1206 71.4531 12.4155 71.4531 12.7775C71.4531 13.1394 71.5604 13.4477 71.8151 13.6891C72.0698 13.9438 72.3647 14.0778 72.7267 14.0778C73.0886 14.0778 73.397 13.9438 73.6383 13.6891C73.893 13.4343 74.0002 13.1394 74.0002 12.7775C74.0002 12.4289 73.893 12.1206 73.6383 11.8659ZM73.5042 13.555C73.2763 13.7829 73.035 13.8901 72.7267 13.8901C72.4183 13.8901 72.177 13.7829 71.9491 13.555C71.7212 13.3271 71.6408 13.0858 71.6408 12.7775C71.6408 12.4691 71.7481 12.2278 71.9491 11.9999C72.177 11.772 72.4183 11.6648 72.7267 11.6648C73.035 11.6648 73.2763 11.772 73.5042 11.9999C73.7321 12.2278 73.8125 12.4691 73.8125 12.7775C73.8125 13.0858 73.7321 13.3405 73.5042 13.555Z" />
      <path d="M73.0083 13.26C72.9547 13.3136 72.8742 13.3404 72.7536 13.3404C72.6195 13.3404 72.4989 13.2868 72.4184 13.1795C72.338 13.0723 72.3112 12.9248 72.3112 12.7908C72.3112 12.6835 72.338 12.5629 72.3916 12.4824C72.472 12.3484 72.5793 12.2545 72.7536 12.2545C72.8608 12.2545 72.9815 12.2813 73.0351 12.335C73.0887 12.3886 73.1423 12.469 73.1423 12.5629H73.3702C73.3434 12.3752 73.263 12.2009 73.0887 12.1205C72.9815 12.0669 72.8608 12.04 72.7536 12.04C72.5659 12.04 72.3916 12.1205 72.2844 12.2679C72.1771 12.402 72.0967 12.6031 72.0967 12.7908C72.0967 13.0187 72.1503 13.2063 72.2844 13.3404C72.4184 13.4745 72.5927 13.5281 72.7804 13.5281C72.9144 13.5281 73.0619 13.4745 73.1691 13.394C73.2764 13.3136 73.33 13.1661 73.3568 13.0321H73.1289C73.1155 13.1125 73.0887 13.2063 73.0083 13.26Z" />
      <path d="M9.15615 9.34586C9.07572 9.01072 8.92826 8.70238 8.74057 8.40745C8.55289 8.09912 8.325 7.85782 8.04347 7.62992C7.76195 7.40202 7.42681 7.21434 7.07826 7.10709C6.9442 7.05347 6.68949 6.99985 6.32753 6.87919C5.99239 6.77195 5.63043 6.69151 5.26848 6.57086C4.90652 6.46361 4.57137 6.38318 4.30326 6.26253C3.99493 6.18209 3.83406 6.12847 3.80724 6.10166C3.39166 5.9676 3.08333 5.76651 2.84203 5.52521C2.58732 5.2705 2.45326 4.90854 2.45326 4.43934C2.45326 4.1042 2.50688 3.86289 2.64094 3.63499C2.775 3.40709 2.94927 3.24623 3.13696 3.13898C3.32464 3.00492 3.55253 2.91108 3.80724 2.85746C4.06195 2.80383 4.27645 2.77702 4.53116 2.77702C5.22826 2.77702 5.80471 2.93789 6.2471 3.27304C6.68949 3.60818 6.9442 4.18463 6.99782 5.01579H8.99529C8.99529 4.3455 8.88804 3.76905 8.63333 3.24623C8.40543 2.75021 8.08369 2.30782 7.69492 1.97268C7.30615 1.61072 6.83695 1.35601 6.31413 1.19514C5.7913 1.03427 5.20145 0.94043 4.625 0.94043C4.12898 0.94043 3.59275 1.02086 3.09674 1.16833C2.60072 1.30239 2.15833 1.5571 1.76956 1.86543C1.3808 2.17376 1.04565 2.56253 0.831159 3.03173C0.576449 3.50094 0.469203 4.09079 0.469203 4.72086C0.469203 5.05601 0.496014 5.39115 0.576449 5.71289C0.656884 6.04804 0.804348 6.35637 0.992029 6.62448C1.17971 6.90601 1.43442 7.17412 1.76956 7.40202C2.10471 7.62992 2.49348 7.8176 2.98949 7.95166C3.76703 8.20637 4.43732 8.39405 4.98695 8.52811C5.50978 8.66216 5.97898 8.83644 6.40797 8.99731C6.63587 9.07774 6.85036 9.25202 7.05145 9.49332C7.23913 9.72122 7.35978 10.0698 7.35978 10.5792C7.35978 10.8339 7.30615 11.0484 7.22572 11.3031C7.14529 11.531 6.99782 11.7455 6.81014 11.9198C6.62246 12.0806 6.36775 12.2549 6.05942 12.3622C5.75108 12.4694 5.36232 12.523 4.94674 12.523C4.53116 12.523 4.1692 12.4694 3.80724 12.389C3.4721 12.2817 3.13696 12.1343 2.89565 11.9198C2.61413 11.6919 2.42645 11.4238 2.27898 11.0618C2.14493 10.6998 2.05109 10.2843 2.05109 9.81506H0C0 10.5926 0.134058 11.2897 0.388768 11.8661C0.643478 12.4426 1.00543 12.9252 1.42101 13.2872C1.83659 13.6491 2.33261 13.9306 2.92246 14.1183C3.49891 14.2792 4.11558 14.3998 4.75906 14.3998C5.30869 14.3998 5.87174 14.3194 6.42137 14.1719C6.97101 14.0379 7.45362 13.7832 7.8692 13.448C8.28478 13.1129 8.64673 12.6973 8.90144 12.2013C9.15615 11.7053 9.29021 11.0886 9.29021 10.3647C9.29021 10.0161 9.2634 9.681 9.15615 9.34586Z" />
      <path d="M12.0381 10.6733H16.5827L17.6686 14.0516H19.8001L15.4298 1.24902H13.2983L8.94141 14.065H10.9925L12.0381 10.6733ZM14.3171 3.46098H14.3707L16.0867 8.95735H12.5878L14.3171 3.46098Z" />
      <path d="M21.9453 4.62728H21.9722L27.187 14.065H29.2917V1.24902H27.3747V10.6867H27.3479L22.133 1.24902H20.0283V14.065H21.9453V4.62728Z" />
      <path d="M39.4671 10.3379C39.4671 10.0027 39.4134 9.6676 39.333 9.34586C39.2526 9.01072 39.1051 8.70238 38.9174 8.40745C38.7297 8.09912 38.5018 7.85782 38.2203 7.62992C37.9388 7.40202 37.6037 7.21434 37.2551 7.10709C37.121 7.05347 36.8663 6.99985 36.5044 6.87919C36.1692 6.77195 35.8073 6.69151 35.4453 6.57086C35.0834 6.46361 34.7482 6.38318 34.4801 6.26253C34.1718 6.18209 34.0109 6.12847 33.9841 6.10166C33.5685 5.9676 33.2602 5.76651 33.0189 5.52521C32.7642 5.2705 32.6301 4.90854 32.6301 4.43934C32.6301 4.1042 32.6837 3.86289 32.8178 3.63499C32.9518 3.40709 33.1261 3.24623 33.3138 3.13898C33.5015 3.00492 33.7294 2.91108 33.9841 2.85746C34.2388 2.80383 34.4533 2.77702 34.708 2.77702C35.4051 2.77702 35.9816 2.93789 36.4239 3.27304C36.8663 3.60818 37.121 4.18463 37.1747 5.01579H39.1721C39.1721 4.3455 39.0649 3.76905 38.8102 3.24623C38.5823 2.75021 38.2605 2.30782 37.8718 1.97268C37.483 1.61072 37.0138 1.35601 36.491 1.19514C35.9681 1.03427 35.4051 0.94043 34.8018 0.94043C34.3058 0.94043 33.7696 1.02086 33.2736 1.16833C32.7776 1.30239 32.3352 1.5571 31.9464 1.86543C31.5576 2.17376 31.2225 2.56253 31.008 3.03173C30.7533 3.50094 30.646 4.06398 30.646 4.72086C30.646 5.05601 30.6729 5.39115 30.7533 5.71289C30.8337 6.04804 30.9812 6.35637 31.1689 6.62448C31.3566 6.90601 31.6113 7.17412 31.9464 7.40202C32.2816 7.62992 32.6703 7.8176 33.1663 7.95166C33.9439 8.20637 34.6142 8.39405 35.1638 8.52811C35.6866 8.66216 36.1558 8.83644 36.5848 8.99731C36.8127 9.07774 37.0272 9.25202 37.2283 9.49332C37.416 9.72122 37.5366 10.0698 37.5366 10.5792C37.5366 10.8339 37.483 11.0484 37.4026 11.3031C37.3221 11.5578 37.1747 11.7455 36.987 11.9198C36.7993 12.0806 36.5446 12.2549 36.2363 12.3622C35.9279 12.4694 35.5392 12.523 35.1236 12.523C34.708 12.523 34.346 12.4694 33.9841 12.389C33.6489 12.2817 33.3138 12.1343 33.0725 11.9198C32.791 11.6919 32.6033 11.4238 32.4558 11.0618C32.3218 10.6998 32.2279 10.2843 32.2279 9.81506H30.2305C30.2305 10.5926 30.3645 11.2897 30.6192 11.8661C30.8739 12.4426 31.2359 12.9252 31.6515 13.2872C32.0671 13.6491 32.5631 13.9306 33.1529 14.1183C33.7294 14.306 34.346 14.3998 34.9895 14.3998C35.5392 14.3998 36.1022 14.3194 36.6518 14.1719C37.2015 14.0379 37.6841 13.7832 38.0997 13.448C38.5152 13.1129 38.8772 12.6973 39.1319 12.2013C39.333 11.6785 39.4671 11.0618 39.4671 10.3379Z" />
      <path d="M48.7439 12.1211H42.4164V8.3675H48.1541V6.54431H42.4164V3.19286H48.6233V1.24902H40.4189V14.065H48.7439V12.1211Z" />
      <path d="M56.7736 10.6465C56.8272 11.0621 56.854 11.5849 56.854 12.1747C56.854 12.4831 56.854 12.8182 56.8808 13.14C56.9076 13.4751 56.9881 13.7834 57.1623 14.0516H59.2939C59.066 13.7968 58.9319 13.3545 58.8247 12.7244C58.7174 12.1077 58.6906 11.424 58.6906 10.6733C58.6906 10.1773 58.637 9.7617 58.5297 9.42655C58.4225 9.09141 58.275 8.80989 58.1141 8.62221C57.9533 8.39431 57.7522 8.26025 57.5645 8.15301C57.3768 8.07257 57.1757 7.99214 57.0149 7.99214V7.95192C57.0953 7.92511 57.2696 7.84467 57.4573 7.72402C57.6449 7.61677 57.8728 7.4425 58.1007 7.20119C58.3286 6.94648 58.4895 6.65156 58.6504 6.23598C58.8112 5.84721 58.9051 5.32438 58.9051 4.70772C58.9051 3.62185 58.5968 2.76388 57.9667 2.16062C57.3232 1.54395 56.3848 1.24902 55.1381 1.24902H49.6953V14.065H51.6928V8.78308H54.6286C55.0978 8.78308 55.4598 8.8367 55.7681 8.97076C56.0765 9.10482 56.291 9.3059 56.4652 9.58742C56.6127 9.86895 56.7199 10.2309 56.7736 10.6465ZM54.9504 7.06714H51.6794V3.07221H54.9236C55.1783 3.07221 55.4196 3.09902 55.6743 3.15265C55.929 3.20627 56.1167 3.2867 56.3178 3.43417C56.5055 3.56822 56.6529 3.76931 56.7602 4.05083C56.8674 4.30554 56.921 4.62728 56.921 5.04286C56.921 5.73996 56.7602 6.23598 56.425 6.57112C56.0631 6.90627 55.5939 7.06714 54.9504 7.06714Z" />
      <path d="M62.1361 1.24902H60.1387V14.065H62.1361V1.24902Z" />
      <path d="M66.8548 3.17946H72.74L72.9276 1.24902H65.045L63.7715 13.9979H65.7824L66.3454 8.34069H71.5066L71.6943 6.5175H66.5331L66.8548 3.17946Z" />
    </g>
  </symbol>

  <symbol id="arrow" viewBox="0 0 23 23">
    <path fill-rule="evenodd" clip-rule="evenodd" d="M0.999996 12.0625L19.8145 12.0626L13.0168 18.8603L14.0774 19.921L22.6858 11.3126L14.0774 2.70421L13.0168 3.76487L19.8145 10.5626L1 10.5625L0.999996 12.0625Z" fill="currentColor" />
  </symbol>

  <symbol id="404" viewBox="0 0 1672 972">
    <path d="M346.059 342.813v-31.847L537.348 5.909h23.466v53.427h-17.39L389.848 304.89v2.724H640.64v35.199H346.059ZM546.357 435V5.91h37.294V435h-37.294ZM817.604 440.867c-30.17 0-55.941-8.66-77.311-25.98-21.231-17.46-37.574-42.672-49.027-75.636-11.314-32.964-16.971-72.563-16.971-118.796 0-46.094 5.657-85.553 16.971-118.377 11.453-32.964 27.866-58.176 49.236-75.636C762.013 8.842 787.713.043 817.604.043c29.892 0 55.523 8.8 76.893 26.4 21.511 17.459 37.923 42.67 49.237 75.635 11.453 32.824 17.18 72.283 17.18 118.377 0 46.233-5.727 85.832-17.18 118.796-11.314 32.964-27.656 58.176-49.027 75.636-21.231 17.32-46.932 25.98-77.103 25.98Zm0-35.199c33.104 0 58.945-16.133 77.522-48.398 18.577-32.406 27.866-78.011 27.866-136.815 0-39.11-4.261-72.493-12.781-100.149-8.381-27.796-20.463-49.027-36.246-63.693-15.644-14.667-34.431-22-56.361-22-32.824 0-58.594 16.343-77.311 49.027-18.717 32.545-28.076 78.15-28.076 136.815 0 39.11 4.191 72.493 12.571 100.149 8.521 27.656 20.603 48.748 36.247 63.274 15.784 14.527 34.64 21.79 56.569 21.79ZM994.621 342.813v-31.847L1185.91 5.909h23.47v53.427h-17.39L1038.41 304.89v2.724h250.79v35.199H994.621ZM1194.92 435V5.91h37.29V435h-37.29ZM.355 966V536.909h248.906v35.199H39.535v161.538h196.527v35.199H39.535v161.957h213.917V966H.355ZM309.367 966V536.909h138.491c30.45 0 55.871 5.518 76.264 16.552 20.533 10.895 35.968 26.05 46.304 45.466 10.476 19.275 15.714 41.414 15.714 66.416 0 25.003-5.238 47.072-15.714 66.208-10.336 19.136-25.701 34.081-46.094 44.836-20.393 10.756-45.675 16.133-75.845 16.133H330.529v-35.827h116.91c22.349 0 40.926-3.702 55.732-11.105 14.945-7.402 26.05-17.948 33.313-31.637 7.403-13.688 11.104-29.891 11.104-48.608 0-18.716-3.701-35.059-11.104-49.027-7.403-14.107-18.577-25.002-33.523-32.684-14.806-7.683-33.522-11.524-56.15-11.524h-98.264V966h-39.18Zm189.194-193.593L604.158 966h-45.256L454.353 772.407h44.208ZM640.275 966V536.909h138.49c30.45 0 55.871 5.518 76.264 16.552 20.533 10.895 35.968 26.05 46.304 45.466 10.476 19.275 15.714 41.414 15.714 66.416 0 25.003-5.238 47.072-15.714 66.208-10.336 19.136-25.701 34.081-46.094 44.836-20.393 10.756-45.675 16.133-75.845 16.133H661.436v-35.827h116.91c22.349 0 40.926-3.702 55.732-11.105 14.945-7.402 26.05-17.948 33.313-31.637 7.403-13.688 11.104-29.891 11.104-48.608 0-18.716-3.701-35.059-11.104-49.027-7.403-14.107-18.577-25.002-33.523-32.684-14.806-7.683-33.522-11.524-56.15-11.524h-98.264V966h-39.179Zm189.193-193.593L935.065 966h-45.256L785.26 772.407h44.208ZM1322.96 751.455c0 44.697-7.96 83.597-23.88 116.701-15.93 32.964-37.86 58.525-65.79 76.683-27.8 18.019-59.78 27.028-95.96 27.028-36.18 0-68.23-9.009-96.17-27.028-27.8-18.158-49.655-43.719-65.579-76.683-15.783-33.104-23.675-72.004-23.675-116.701 0-44.697 7.892-83.528 23.675-116.492 15.924-33.103 37.849-58.664 65.789-76.683 27.94-18.158 59.92-27.237 95.96-27.237 36.18 0 68.16 9.079 95.96 27.237 27.93 18.019 49.86 43.58 65.79 76.683 15.92 32.964 23.88 71.795 23.88 116.492Zm-38.13 0c0-38.412-6.43-71.306-19.28-98.683-12.85-27.516-30.38-48.538-52.59-63.064-22.2-14.527-47.42-21.79-75.63-21.79-28.08 0-53.22 7.263-75.43 21.79-22.21 14.526-39.81 35.478-52.8 62.855-12.846 27.377-19.272 60.341-19.272 98.892 0 38.411 6.426 71.306 19.272 98.682 12.85 27.377 30.38 48.399 52.59 63.065 22.21 14.527 47.42 21.79 75.64 21.79 28.21 0 53.43-7.263 75.63-21.79 22.35-14.526 39.95-35.478 52.8-62.855 12.85-27.517 19.21-60.481 19.07-98.892ZM1376.41 966V536.909h138.5c30.45 0 55.87 5.518 76.26 16.552 20.53 10.895 35.97 26.05 46.3 45.466 10.48 19.275 15.72 41.414 15.72 66.416 0 25.003-5.24 47.072-15.72 66.208-10.33 19.136-25.7 34.081-46.09 44.836-20.39 10.756-45.68 16.133-75.85 16.133h-117.95v-35.827h116.91c22.35 0 40.92-3.702 55.73-11.105 14.94-7.402 26.05-17.948 33.31-31.637 7.4-13.688 11.11-29.891 11.11-48.608 0-18.716-3.71-35.059-11.11-49.027-7.4-14.107-18.58-25.002-33.52-32.684-14.81-7.683-33.52-11.524-56.15-11.524h-98.27V966h-39.18Zm189.2-193.593L1671.21 966h-45.26L1521.4 772.407h44.21Z" />
  </symbol>

</svg>
